<?xml version="1.0" encoding="UTF-8" standalone="no"?>
<!-- Created with Inkscape (http://www.inkscape.org/) -->

<svg
   width="210mm"
   height="297mm"
   viewBox="0 0 210 297"
   version="1.1"
   id="svg5"
   xml:space="preserve"
   inkscape:export-filename="green phoenix.svg"
   inkscape:export-xdpi="96"
   inkscape:export-ydpi="96"
   inkscape:version="1.2.2 (732a01da63, 2022-12-09)"
   sodipodi:docname="logo inscape green-phoenix.svg"
   xmlns:inkscape="http://www.inkscape.org/namespaces/inkscape"
   xmlns:sodipodi="http://sodipodi.sourceforge.net/DTD/sodipodi-0.dtd"
   xmlns="http://www.w3.org/2000/svg"
   xmlns:svg="http://www.w3.org/2000/svg"><sodipodi:namedview
     id="namedview7"
     pagecolor="#ffffff"
     bordercolor="#000000"
     borderopacity="0.25"
     inkscape:showpageshadow="2"
     inkscape:pageopacity="0.0"
     inkscape:pagecheckerboard="0"
     inkscape:deskcolor="#d1d1d1"
     inkscape:document-units="mm"
     showgrid="false"
     inkscape:zoom="1.0192238"
     inkscape:cx="495.96566"
     inkscape:cy="429.73879"
     inkscape:window-width="1920"
     inkscape:window-height="974"
     inkscape:window-x="-11"
     inkscape:window-y="1609"
     inkscape:window-maximized="1"
     inkscape:current-layer="layer1" /><defs
     id="defs2"><inkscape:path-effect
       effect="skeletal"
       id="path-effect3062"
       is_visible="true"
       lpeversion="1"
       pattern="M 0,4.9921382 C 0,2.2364779 2.2364779,0 4.9921382,0 c 2.7556604,0 4.9921383,2.2364779 4.9921383,4.9921382 0,2.7556604 -2.2364779,4.9921383 -4.9921383,4.9921383 C 2.2364779,9.9842765 0,7.7477986 0,4.9921382 Z"
       copytype="single_stretched"
       prop_scale="1"
       scale_y_rel="false"
       spacing="0"
       normal_offset="0"
       tang_offset="0"
       prop_units="false"
       vertical_pattern="false"
       hide_knot="false"
       fuse_tolerance="0" /><inkscape:path-effect
       effect="bspline"
       id="path-effect3060"
       is_visible="true"
       lpeversion="1"
       weight="33.333333"
       steps="2"
       helper_size="0"
       apply_no_weight="true"
       apply_with_weight="true"
       only_selected="false" /><inkscape:path-effect
       effect="skeletal"
       id="path-effect3056"
       is_visible="true"
       lpeversion="1"
       pattern="M 0,4.9921382 C 0,2.2364779 2.2364779,0 4.9921382,0 c 2.7556604,0 4.9921383,2.2364779 4.9921383,4.9921382 0,2.7556604 -2.2364779,4.9921383 -4.9921383,4.9921383 C 2.2364779,9.9842765 0,7.7477986 0,4.9921382 Z"
       copytype="single_stretched"
       prop_scale="1"
       scale_y_rel="false"
       spacing="0"
       normal_offset="0"
       tang_offset="0"
       prop_units="false"
       vertical_pattern="false"
       hide_knot="false"
       fuse_tolerance="0" /><inkscape:path-effect
       effect="bspline"
       id="path-effect3054"
       is_visible="true"
       lpeversion="1"
       weight="33.333333"
       steps="2"
       helper_size="0"
       apply_no_weight="true"
       apply_with_weight="true"
       only_selected="false" /><inkscape:path-effect
       effect="skeletal"
       id="path-effect3050"
       is_visible="true"
       lpeversion="1"
       pattern="M 0,4.9921382 C 0,2.2364779 2.2364779,0 4.9921382,0 c 2.7556604,0 4.9921383,2.2364779 4.9921383,4.9921382 0,2.7556604 -2.2364779,4.9921383 -4.9921383,4.9921383 C 2.2364779,9.9842765 0,7.7477986 0,4.9921382 Z"
       copytype="single_stretched"
       prop_scale="1"
       scale_y_rel="false"
       spacing="0"
       normal_offset="0"
       tang_offset="0"
       prop_units="false"
       vertical_pattern="false"
       hide_knot="false"
       fuse_tolerance="0" /><inkscape:path-effect
       effect="skeletal"
       id="path-effect2918"
       is_visible="true"
       lpeversion="1"
       pattern="M 0,4.9921382 C 0,2.2364779 2.2364779,0 4.9921382,0 c 2.7556604,0 4.9921383,2.2364779 4.9921383,4.9921382 0,2.7556604 -2.2364779,4.9921383 -4.9921383,4.9921383 C 2.2364779,9.9842765 0,7.7477986 0,4.9921382 Z"
       copytype="single_stretched"
       prop_scale="1"
       scale_y_rel="false"
       spacing="0"
       normal_offset="0"
       tang_offset="0"
       prop_units="false"
       vertical_pattern="false"
       hide_knot="false"
       fuse_tolerance="0" /><inkscape:path-effect
       effect="simplify"
       id="path-effect2916"
       is_visible="true"
       lpeversion="1"
       steps="1"
       threshold="0.00316129"
       smooth_angles="360"
       helper_size="0"
       simplify_individual_paths="false"
       simplify_just_coalesce="false" /><inkscape:path-effect
       effect="skeletal"
       id="path-effect2912"
       is_visible="true"
       lpeversion="1"
       pattern="M 0,4.9921382 C 0,2.2364779 2.2364779,0 4.9921382,0 c 2.7556604,0 4.9921383,2.2364779 4.9921383,4.9921382 0,2.7556604 -2.2364779,4.9921383 -4.9921383,4.9921383 C 2.2364779,9.9842765 0,7.7477986 0,4.9921382 Z"
       copytype="single_stretched"
       prop_scale="1"
       scale_y_rel="false"
       spacing="0"
       normal_offset="0"
       tang_offset="0"
       prop_units="false"
       vertical_pattern="false"
       hide_knot="false"
       fuse_tolerance="0" /><inkscape:path-effect
       effect="simplify"
       id="path-effect2910"
       is_visible="true"
       lpeversion="1"
       steps="1"
       threshold="0.00316129"
       smooth_angles="360"
       helper_size="0"
       simplify_individual_paths="false"
       simplify_just_coalesce="false" /><inkscape:path-effect
       effect="skeletal"
       id="path-effect2906"
       is_visible="true"
       lpeversion="1"
       pattern="M 0,4.9921382 C 0,2.2364779 2.2364779,0 4.9921382,0 c 2.7556604,0 4.9921383,2.2364779 4.9921383,4.9921382 0,2.7556604 -2.2364779,4.9921383 -4.9921383,4.9921383 C 2.2364779,9.9842765 0,7.7477986 0,4.9921382 Z"
       copytype="single_stretched"
       prop_scale="1"
       scale_y_rel="false"
       spacing="0"
       normal_offset="0"
       tang_offset="0"
       prop_units="false"
       vertical_pattern="false"
       hide_knot="false"
       fuse_tolerance="0" /><inkscape:path-effect
       effect="spiro"
       id="path-effect2904"
       is_visible="true"
       lpeversion="1" /><inkscape:path-effect
       effect="simplify"
       id="path-effect2902"
       is_visible="true"
       lpeversion="1"
       steps="1"
       threshold="0.00316129"
       smooth_angles="360"
       helper_size="0"
       simplify_individual_paths="false"
       simplify_just_coalesce="false" /><clipPath
       clipPathUnits="userSpaceOnUse"
       id="clipPath64"><path
         d="m 1868.69,3218.54 c 9.87,-26.35 321.15,-264.2 700.24,-291.56 451.04,-32.57 654.56,116.62 610.09,281.68 -46.12,171.07 -207.51,189.35 -448.18,149.45 -151.46,-25.1 -522.25,-116 -862.15,-139.57 z"
         id="path62" /></clipPath><linearGradient
       x1="0"
       y1="0"
       x2="1"
       y2="0"
       gradientUnits="userSpaceOnUse"
       gradientTransform="matrix(88.8943,-503.733,-503.733,-88.8943,2483.51,3444.26)"
       spreadMethod="pad"
       id="linearGradient70"><stop
         style="stop-opacity:1;stop-color:#85085b"
         offset="0"
         id="stop66" /><stop
         style="stop-opacity:1;stop-color:#cf1111"
         offset="1"
         id="stop68" /></linearGradient><clipPath
       clipPathUnits="userSpaceOnUse"
       id="clipPath80"><path
         d="m 3277.77,2708.03 c 0,0 -153.94,-229.65 -470.85,-222.26 -358.97,8.41 -425.46,106.21 -543.15,9.91 -114.67,-93.79 -67.48,-375.31 302.89,-385.18 225.34,-6.01 561.39,93.95 711.11,597.53 z"
         id="path78" /></clipPath><linearGradient
       x1="0"
       y1="0"
       x2="1"
       y2="0"
       gradientUnits="userSpaceOnUse"
       gradientTransform="matrix(-1289.09,-374.252,-374.252,1289.09,3246.09,2535.83)"
       spreadMethod="pad"
       id="linearGradient88"><stop
         style="stop-opacity:1;stop-color:#ffc800"
         offset="0"
         id="stop82" /><stop
         style="stop-opacity:1;stop-color:#fc0e0e"
         offset="0.8506367"
         id="stop84" /><stop
         style="stop-opacity:1;stop-color:#fc0e0e"
         offset="1"
         id="stop86" /></linearGradient><clipPath
       clipPathUnits="userSpaceOnUse"
       id="clipPath98"><path
         d="m 1282.71,4082.52 c -58.57,-15.43 -159.1,-131.09 -44.47,-288.08 106.99,-146.49 272.17,-233.56 535.02,-215.63 296.29,20.2 358.83,77.36 358.83,77.36 0,0 -344.69,-76.53 -530.07,187.56 -151.42,215.75 -227.45,263.01 -319.31,238.79 z"
         id="path96" /></clipPath><linearGradient
       x1="0"
       y1="0"
       x2="1"
       y2="0"
       gradientUnits="userSpaceOnUse"
       gradientTransform="matrix(849.407,-641.993,-641.993,-849.407,1060.63,4182.76)"
       spreadMethod="pad"
       id="linearGradient106"><stop
         style="stop-opacity:1;stop-color:#ffc800"
         offset="0"
         id="stop100" /><stop
         style="stop-opacity:1;stop-color:#ffc800"
         offset="0.175758"
         id="stop102" /><stop
         style="stop-opacity:1;stop-color:#fc0e0e"
         offset="1"
         id="stop104" /></linearGradient><clipPath
       clipPathUnits="userSpaceOnUse"
       id="clipPath116"><path
         d="m 3672.58,3710.24 c 0,0 -59.01,173.47 35.3,241.66 75.47,54.57 203.52,11.23 231.62,-39.36 -118.01,14.04 -232.85,-122.83 -266.92,-202.3 z"
         id="path114" /></clipPath><linearGradient
       x1="0"
       y1="0"
       x2="1"
       y2="0"
       gradientUnits="userSpaceOnUse"
       gradientTransform="matrix(285.151,0,0,-285.151,3654.35,3843.71)"
       spreadMethod="pad"
       id="linearGradient122"><stop
         style="stop-opacity:1;stop-color:#85085b"
         offset="0"
         id="stop118" /><stop
         style="stop-opacity:1;stop-color:#cf1111"
         offset="1"
         id="stop120" /></linearGradient><clipPath
       clipPathUnits="userSpaceOnUse"
       id="clipPath132"><path
         d="m 2132.09,2199.38 c 47.83,-22.61 112.15,-89.96 209.86,-122.83 200.02,-67.28 360.51,-22.23 521.01,55.35 -172.84,-139.91 -392.94,-271.87 -706.17,-169.54 -249.39,81.47 -165.75,303.74 -24.7,237.02 z"
         id="path130" /></clipPath><linearGradient
       x1="0"
       y1="0"
       x2="1"
       y2="0"
       gradientUnits="userSpaceOnUse"
       gradientTransform="matrix(865.757,0,0,-865.757,1997.2,2068.85)"
       spreadMethod="pad"
       id="linearGradient138"><stop
         style="stop-opacity:1;stop-color:#85085b"
         offset="0"
         id="stop134" /><stop
         style="stop-opacity:1;stop-color:#cf1111"
         offset="1"
         id="stop136" /></linearGradient><clipPath
       clipPathUnits="userSpaceOnUse"
       id="clipPath148"><path
         d="m 2930.84,2110.24 c 0,0 -145.42,-95.44 -204.45,-177.79 -107.44,-149.79 -95.28,-298.33 0.75,-352.49 93.83,-52.88 187.75,49.46 153.63,144.83 -57.3,160.13 -49.31,271.43 50.07,385.45 z"
         id="path146" /></clipPath><linearGradient
       x1="0"
       y1="0"
       x2="1"
       y2="0"
       gradientUnits="userSpaceOnUse"
       gradientTransform="matrix(-88.8881,1125.91,1125.91,88.8881,2867.26,942.91)"
       spreadMethod="pad"
       id="linearGradient156"><stop
         style="stop-opacity:1;stop-color:#ffc800"
         offset="0"
         id="stop150" /><stop
         style="stop-opacity:1;stop-color:#ffc800"
         offset="0.36912"
         id="stop152" /><stop
         style="stop-opacity:1;stop-color:#fc0e0e"
         offset="1"
         id="stop154" /></linearGradient><clipPath
       clipPathUnits="userSpaceOnUse"
       id="clipPath166"><path
         d="m 2710.64,1982.42 c 0,0 -219.73,-90.05 -367.12,-433.2 -74.69,-173.76 -91.04,-413.14 18.96,-441.29 125.16,-32.03 148.01,100.27 148.08,280.15 0.13,310.04 85.73,472.72 200.08,594.34 z"
         id="path164" /></clipPath><linearGradient
       x1="0"
       y1="0"
       x2="1"
       y2="0"
       gradientUnits="userSpaceOnUse"
       gradientTransform="matrix(414.819,1412.37,1412.37,-414.819,2239.77,774.55)"
       spreadMethod="pad"
       id="linearGradient174"><stop
         style="stop-opacity:1;stop-color:#ffc800"
         offset="0"
         id="stop168" /><stop
         style="stop-opacity:1;stop-color:#ffc800"
         offset="0.175758"
         id="stop170" /><stop
         style="stop-opacity:1;stop-color:#fc0e0e"
         offset="1"
         id="stop172" /></linearGradient><clipPath
       clipPathUnits="userSpaceOnUse"
       id="clipPath184"><path
         d="m 2069.12,1868.38 c -76.64,47.85 -159.84,-92.38 -36.77,-149.74 204.8,-95.39 435.62,127.85 469.65,166.43 34.83,39.57 -93.97,-28.97 -176.2,-41.27 -119.3,-17.8 -168.69,-30.41 -256.68,24.58 z"
         id="path182" /></clipPath><linearGradient
       x1="0"
       y1="0"
       x2="1"
       y2="0"
       gradientUnits="userSpaceOnUse"
       gradientTransform="matrix(829.639,444.45,444.45,-829.639,1650.92,1533.08)"
       spreadMethod="pad"
       id="linearGradient192"><stop
         style="stop-opacity:1;stop-color:#ffc800"
         offset="0"
         id="stop186" /><stop
         style="stop-opacity:1;stop-color:#ffc800"
         offset="0.175758"
         id="stop188" /><stop
         style="stop-opacity:1;stop-color:#fc0e0e"
         offset="1"
         id="stop190" /></linearGradient><clipPath
       clipPathUnits="userSpaceOnUse"
       id="clipPath202"><path
         d="m 3261.19,3261.6 c 251.75,-373.28 -23.52,-824.92 -240.24,-1083.71 0,0 0.02,0 0.02,0.02 109.34,64.31 190.97,158.45 296.32,231.23 553.09,441.06 559.51,788.4 384.1,1108.77 -83.49,152.47 -103.81,257.72 -89.36,330.5 -1.54,41.77 19.05,86.3 46.37,126.73 -427.9,-111.11 -229.44,-454.39 -183.1,-605.38 -360.51,627.18 -1087.43,217.45 -1614.19,151.61 -526.75,-65.86 -648.56,155.55 -648.56,155.55 36.2,-153.91 288.84,-467.35 712.14,-410.86 584.98,78.05 1129.2,302.87 1336.5,-4.46 z"
         id="path200" /></clipPath><linearGradient
       x1="0"
       y1="0"
       x2="1"
       y2="0"
       gradientUnits="userSpaceOnUse"
       gradientTransform="matrix(1298.61,-946.907,-946.907,-1298.61,2486,3698.99)"
       spreadMethod="pad"
       id="linearGradient210"><stop
         style="stop-opacity:1;stop-color:#ffc800"
         offset="0"
         id="stop204" /><stop
         style="stop-opacity:1;stop-color:#ffc800"
         offset="0.175758"
         id="stop206" /><stop
         style="stop-opacity:1;stop-color:#fc0e0e"
         offset="1"
         id="stop208" /></linearGradient><clipPath
       clipPathUnits="userSpaceOnUse"
       id="clipPath220"><path
         d="m 2955.57,2049.54 c -190.16,-233.03 153.99,-431.98 257.59,-165.53 41.72,107.31 -13.34,267.52 32.51,405.73 -162.65,-123.12 -230.6,-167.26 -290.1,-240.2 z"
         id="path218" /></clipPath><linearGradient
       x1="0"
       y1="0"
       x2="1"
       y2="0"
       gradientUnits="userSpaceOnUse"
       gradientTransform="matrix(346.392,0,0,-346.392,2899.28,2023.21)"
       spreadMethod="pad"
       id="linearGradient226"><stop
         style="stop-opacity:1;stop-color:#85085b"
         offset="0"
         id="stop222" /><stop
         style="stop-opacity:1;stop-color:#cf1111"
         offset="1"
         id="stop224" /></linearGradient><clipPath
       clipPathUnits="userSpaceOnUse"
       id="clipPath236"><path
         d="m 3257.42,3876.36 c 35.65,-18.08 79.25,-3.86 97.37,31.81 18.08,35.67 3.83,79.25 -31.8,97.36 -35.69,18.1 -79.27,3.87 -97.39,-31.8 -18.08,-35.65 -3.84,-79.25 31.82,-97.37 z"
         id="path234" /></clipPath><radialGradient
       fx="0"
       fy="0"
       cx="0"
       cy="0"
       r="1"
       gradientUnits="userSpaceOnUse"
       gradientTransform="matrix(70.1143,-79.3298,79.3298,70.1143,3272.14,3979.27)"
       spreadMethod="pad"
       id="radialGradient242"><stop
         style="stop-opacity:1;stop-color:#cf1111"
         offset="0"
         id="stop238" /><stop
         style="stop-opacity:1;stop-color:#85085b"
         offset="1"
         id="stop240" /></radialGradient><clipPath
       clipPathUnits="userSpaceOnUse"
       id="clipPath252"><path
         d="m 3409.92,4016.78 c 25.31,-12.85 56.28,-2.75 69.12,22.58 12.86,25.31 2.78,56.29 -22.55,69.14 -25.34,12.86 -56.32,2.75 -69.17,-22.59 -12.86,-25.32 -2.74,-56.3 22.6,-69.13 z"
         id="path250" /></clipPath><radialGradient
       fx="0"
       fy="0"
       cx="0"
       cy="0"
       r="1"
       gradientUnits="userSpaceOnUse"
       gradientTransform="matrix(49.781,-56.3239,56.3239,49.781,3420.38,4089.86)"
       spreadMethod="pad"
       id="radialGradient258"><stop
         style="stop-opacity:1;stop-color:#cf1111"
         offset="0"
         id="stop254" /><stop
         style="stop-opacity:1;stop-color:#85085b"
         offset="1"
         id="stop256" /></radialGradient><clipPath
       clipPathUnits="userSpaceOnUse"
       id="clipPath268"><path
         d="m 1156.46,3637.82 c 0,-39.99 -32.44,-72.42 -72.43,-72.42 -39.99,0 -72.43,32.43 -72.43,72.42 0,40.01 32.44,72.42 72.43,72.42 39.99,0 72.43,-32.41 72.43,-72.42 z"
         id="path266" /></clipPath><radialGradient
       fx="0"
       fy="0"
       cx="0"
       cy="0"
       r="1"
       gradientUnits="userSpaceOnUse"
       gradientTransform="matrix(38.9978,-98.4083,-98.4083,-38.9978,1058.02,3671.24)"
       spreadMethod="pad"
       id="radialGradient274"><stop
         style="stop-opacity:1;stop-color:#cf1111"
         offset="0"
         id="stop270" /><stop
         style="stop-opacity:1;stop-color:#85085b"
         offset="1"
         id="stop272" /></radialGradient><clipPath
       clipPathUnits="userSpaceOnUse"
       id="clipPath284"><path
         d="m 1156.46,4200.53 c 0,-40 -32.44,-72.42 -72.43,-72.42 -39.99,0 -72.43,32.42 -72.43,72.42 0,40.02 32.44,72.43 72.43,72.43 39.99,0 72.43,-32.41 72.43,-72.43 z"
         id="path282" /></clipPath><radialGradient
       fx="0"
       fy="0"
       cx="0"
       cy="0"
       r="1"
       gradientUnits="userSpaceOnUse"
       gradientTransform="matrix(38.9997,-98.4132,-98.4132,-38.9997,1058.02,4233.96)"
       spreadMethod="pad"
       id="radialGradient290"><stop
         style="stop-opacity:1;stop-color:#cf1111"
         offset="0"
         id="stop286" /><stop
         style="stop-opacity:1;stop-color:#85085b"
         offset="1"
         id="stop288" /></radialGradient><clipPath
       clipPathUnits="userSpaceOnUse"
       id="clipPath300"><path
         d="m 1103.83,3919.06 c 0,-50.91 -41.28,-92.2 -92.19,-92.2 -50.956,0 -92.245,41.29 -92.245,92.2 0,50.94 41.289,92.25 92.245,92.25 50.91,0 92.19,-41.31 92.19,-92.25 z"
         id="path298" /></clipPath><radialGradient
       fx="0"
       fy="0"
       cx="0"
       cy="0"
       r="1"
       gradientUnits="userSpaceOnUse"
       gradientTransform="matrix(49.658,-125.309,-125.309,-49.658,978.501,3961.65)"
       spreadMethod="pad"
       id="radialGradient306"><stop
         style="stop-opacity:1;stop-color:#cf1111"
         offset="0"
         id="stop302" /><stop
         style="stop-opacity:1;stop-color:#85085b"
         offset="1"
         id="stop304" /></radialGradient><clipPath
       clipPathUnits="userSpaceOnUse"
       id="clipPath316"><path
         d="m 1235.58,3446.3 c 0,-27.49 -22.28,-49.77 -49.76,-49.77 -27.48,0 -49.77,22.28 -49.77,49.77 0,27.49 22.29,49.78 49.77,49.78 27.48,0 49.76,-22.29 49.76,-49.78 z"
         id="path314" /></clipPath><radialGradient
       fx="0"
       fy="0"
       cx="0"
       cy="0"
       r="1"
       gradientUnits="userSpaceOnUse"
       gradientTransform="matrix(26.7983,-67.6236,-67.6236,-26.7983,1167.95,3469.28)"
       spreadMethod="pad"
       id="radialGradient322"><stop
         style="stop-opacity:1;stop-color:#cf1111"
         offset="0"
         id="stop318" /><stop
         style="stop-opacity:1;stop-color:#85085b"
         offset="1"
         id="stop320" /></radialGradient><clipPath
       clipPathUnits="userSpaceOnUse"
       id="clipPath332"><path
         d="m 1341.85,3308.48 c 0,-23.65 -19.19,-42.87 -42.89,-42.87 -23.67,0 -42.85,19.22 -42.85,42.87 0,23.67 19.18,42.89 42.85,42.89 23.7,0 42.89,-19.22 42.89,-42.89 z"
         id="path330" /></clipPath><radialGradient
       fx="0"
       fy="0"
       cx="0"
       cy="0"
       r="1"
       gradientUnits="userSpaceOnUse"
       gradientTransform="matrix(23.0855,-58.2548,-58.2548,-23.0855,1283.59,3328.28)"
       spreadMethod="pad"
       id="radialGradient338"><stop
         style="stop-opacity:1;stop-color:#cf1111"
         offset="0"
         id="stop334" /><stop
         style="stop-opacity:1;stop-color:#85085b"
         offset="1"
         id="stop336" /></radialGradient><clipPath
       clipPathUnits="userSpaceOnUse"
       id="clipPath348"><path
         d="m 1496.58,3206.45 c 0,-23.69 -19.2,-42.88 -42.87,-42.88 -23.68,0 -42.89,19.19 -42.89,42.88 0,23.65 19.21,42.87 42.89,42.87 23.67,0 42.87,-19.22 42.87,-42.87 z"
         id="path346" /></clipPath><radialGradient
       fx="0"
       fy="0"
       cx="0"
       cy="0"
       r="1"
       gradientUnits="userSpaceOnUse"
       gradientTransform="matrix(23.0882,-58.2614,-58.2614,-23.0882,1438.31,3226.23)"
       spreadMethod="pad"
       id="radialGradient354"><stop
         style="stop-opacity:1;stop-color:#cf1111"
         offset="0"
         id="stop350" /><stop
         style="stop-opacity:1;stop-color:#85085b"
         offset="1"
         id="stop352" /></radialGradient><clipPath
       clipPathUnits="userSpaceOnUse"
       id="clipPath364"><path
         d="m 1701.84,3163.57 c 0,-23.7 -19.21,-42.89 -42.88,-42.89 -23.69,0 -42.87,19.19 -42.87,42.89 0,23.67 19.18,42.88 42.87,42.88 23.67,0 42.88,-19.21 42.88,-42.88 z"
         id="path362" /></clipPath><radialGradient
       fx="0"
       fy="0"
       cx="0"
       cy="0"
       r="1"
       gradientUnits="userSpaceOnUse"
       gradientTransform="matrix(23.0893,-58.2642,-58.2642,-23.0893,1643.57,3183.36)"
       spreadMethod="pad"
       id="radialGradient370"><stop
         style="stop-opacity:1;stop-color:#cf1111"
         offset="0"
         id="stop366" /><stop
         style="stop-opacity:1;stop-color:#85085b"
         offset="1"
         id="stop368" /></radialGradient><clipPath
       clipPathUnits="userSpaceOnUse"
       id="clipPath380"><path
         d="m 2124.3,1181.56 c -6.8,-53.5 -55.67,-91.34 -109.09,-84.53 -53.5,6.74 -91.35,55.63 -84.58,109.08 6.78,53.44 55.64,91.35 109.12,84.54 53.42,-6.79 91.3,-55.6 84.55,-109.09 z"
         id="path378" /></clipPath><radialGradient
       fx="0"
       fy="0"
       cx="0"
       cy="0"
       r="1"
       gradientUnits="userSpaceOnUse"
       gradientTransform="matrix(35.4524,-138.167,-138.167,-35.4524,1998.35,1242.94)"
       spreadMethod="pad"
       id="radialGradient386"><stop
         style="stop-opacity:1;stop-color:#cf1111"
         offset="0"
         id="stop382" /><stop
         style="stop-opacity:1;stop-color:#85085b"
         offset="1"
         id="stop384" /></radialGradient><clipPath
       clipPathUnits="userSpaceOnUse"
       id="clipPath396"><path
         d="m 2190.93,1416.83 c -4.68,-36.75 -38.25,-62.77 -74.97,-58.1 -36.76,4.64 -62.76,38.25 -58.09,74.98 4.63,36.72 38.2,62.74 74.96,58.12 36.72,-4.68 62.75,-38.26 58.1,-75 z"
         id="path394" /></clipPath><radialGradient
       fx="0"
       fy="0"
       cx="0"
       cy="0"
       r="1"
       gradientUnits="userSpaceOnUse"
       gradientTransform="matrix(24.3625,-94.9473,-94.9473,-24.3625,2104.4,1459.02)"
       spreadMethod="pad"
       id="radialGradient402"><stop
         style="stop-opacity:1;stop-color:#cf1111"
         offset="0"
         id="stop398" /><stop
         style="stop-opacity:1;stop-color:#85085b"
         offset="1"
         id="stop400" /></radialGradient><clipPath
       clipPathUnits="userSpaceOnUse"
       id="clipPath412"><path
         d="m 2039.02,928.84 c -4.66,-36.738 -38.24,-62.781 -74.98,-58.11 -36.75,4.622 -62.75,38.231 -58.04,74.969 4.61,36.711 38.18,62.781 74.95,58.101 36.73,-4.659 62.72,-38.261 58.07,-74.96 z"
         id="path410" /></clipPath><radialGradient
       fx="0"
       fy="0"
       cx="0"
       cy="0"
       r="1"
       gradientUnits="userSpaceOnUse"
       gradientTransform="matrix(24.3601,-94.9379,-94.9379,-24.3601,1952.52,971.01)"
       spreadMethod="pad"
       id="radialGradient418"><stop
         style="stop-opacity:1;stop-color:#cf1111"
         offset="0"
         id="stop414" /><stop
         style="stop-opacity:1;stop-color:#85085b"
         offset="1"
         id="stop416" /></radialGradient><clipPath
       clipPathUnits="userSpaceOnUse"
       id="clipPath428"><path
         d="m 2305.16,1586.35 c -4.07,-31.64 -32.95,-54.09 -64.61,-50.03 -31.65,3.97 -54.07,32.9 -50.05,64.55 4,31.66 32.93,54.05 64.58,50.07 31.68,-4.01 54.08,-32.95 50.08,-64.59 z"
         id="path426" /></clipPath><radialGradient
       fx="0"
       fy="0"
       cx="0"
       cy="0"
       r="1"
       gradientUnits="userSpaceOnUse"
       gradientTransform="matrix(20.9885,-81.7977,-81.7977,-20.9885,2230.6,1622.7)"
       spreadMethod="pad"
       id="radialGradient434"><stop
         style="stop-opacity:1;stop-color:#cf1111"
         offset="0"
         id="stop430" /><stop
         style="stop-opacity:1;stop-color:#85085b"
         offset="1"
         id="stop432" /></radialGradient><clipPath
       clipPathUnits="userSpaceOnUse"
       id="clipPath444"><path
         d="m 3576.59,4060 c 25,-12.67 55.56,-2.71 68.24,22.29 12.71,25 2.73,55.53 -22.27,68.22 -24.98,12.7 -55.54,2.72 -68.24,-22.28 -12.66,-25 -2.7,-55.55 22.27,-68.23 z"
         id="path442" /></clipPath><radialGradient
       fx="0"
       fy="0"
       cx="0"
       cy="0"
       r="1"
       gradientUnits="userSpaceOnUse"
       gradientTransform="matrix(49.1225,-55.579,55.579,49.1225,3586.93,4132.1)"
       spreadMethod="pad"
       id="radialGradient450"><stop
         style="stop-opacity:1;stop-color:#cf1111"
         offset="0"
         id="stop446" /><stop
         style="stop-opacity:1;stop-color:#85085b"
         offset="1"
         id="stop448" /></radialGradient></defs><g
     inkscape:label="Calque 1"
     inkscape:groupmode="layer"
     id="layer1"><g
       id="g10"
       transform="matrix(0.03527778,0,0,-0.03527778,14.39628,210.93187)"><path
         d="m 7329.836,-235.47329 h -8418.9 V 5433.8167 h 8418.9 V -235.47329"
         style="fill:#ffffff;fill-opacity:1;fill-rule:nonzero;stroke:none;opacity:0"
         id="path12" /><g
         id="g58"><g
           id="g60"
           clip-path="url(#clipPath64)"><path
             d="m 1868.69,3218.54 c 9.87,-26.35 321.15,-264.2 700.24,-291.56 451.04,-32.57 654.56,116.62 610.09,281.68 -46.12,171.07 -207.51,189.35 -448.18,149.45 -151.46,-25.1 -522.25,-116 -862.15,-139.57"
             style="fill:#008000;fill-opacity:1;fill-rule:nonzero;stroke:none"
             id="path72" /></g></g><g
         id="g74"><g
           id="g76"
           clip-path="url(#clipPath80)"><path
             d="m 3277.77,2708.03 c 0,0 -153.94,-229.65 -470.85,-222.26 -358.97,8.41 -425.46,106.21 -543.15,9.91 -114.67,-93.79 -67.48,-375.31 302.89,-385.18 225.34,-6.01 561.39,93.95 711.11,597.53"
             style="fill:#008000;fill-opacity:1;fill-rule:nonzero;stroke:none"
             id="path90" /></g></g><g
         id="g92"><g
           id="g94"
           clip-path="url(#clipPath98)"><path
             d="m 1282.71,4082.52 c -58.57,-15.43 -159.1,-131.09 -44.47,-288.08 106.99,-146.49 272.17,-233.56 535.02,-215.63 296.29,20.2 358.83,77.36 358.83,77.36 0,0 -344.69,-76.53 -530.07,187.56 -151.42,215.75 -227.45,263.01 -319.31,238.79"
             style="fill:#008000;fill-opacity:1;fill-rule:nonzero;stroke:none"
             id="path108" /></g></g><g
         id="g110"><g
           id="g112"
           clip-path="url(#clipPath116)"><path
             d="m 3672.58,3710.24 c 0,0 -59.01,173.47 35.3,241.66 75.47,54.57 203.52,11.23 231.62,-39.36 -118.01,14.04 -232.85,-122.83 -266.92,-202.3"
             style="fill:#008000;fill-opacity:1;fill-rule:nonzero;stroke:none"
             id="path124" /></g></g><g
         id="g126"><g
           id="g128"
           clip-path="url(#clipPath132)"><path
             d="m 2132.09,2199.38 c 47.83,-22.61 112.15,-89.96 209.86,-122.83 200.02,-67.28 360.51,-22.23 521.01,55.35 -172.84,-139.91 -392.94,-271.87 -706.17,-169.54 -249.39,81.47 -165.75,303.74 -24.7,237.02"
             style="fill:#008000;fill-opacity:1;fill-rule:nonzero;stroke:none"
             id="path140" /></g></g><g
         id="g142"><g
           id="g144"
           clip-path="url(#clipPath148)"><path
             d="m 2930.84,2110.24 c 0,0 -145.42,-95.44 -204.45,-177.79 -107.44,-149.79 -95.28,-298.33 0.75,-352.49 93.83,-52.88 187.75,49.46 153.63,144.83 -57.3,160.13 -49.31,271.43 50.07,385.45"
             style="fill:#008000;fill-opacity:1;fill-rule:nonzero;stroke:none"
             id="path158" /></g></g><g
         id="g160"><g
           id="g162"
           clip-path="url(#clipPath166)"><path
             d="m 2710.64,1982.42 c 0,0 -219.73,-90.05 -367.12,-433.2 -74.69,-173.76 -91.04,-413.14 18.96,-441.29 125.16,-32.03 148.01,100.27 148.08,280.15 0.13,310.04 85.73,472.72 200.08,594.34"
             style="fill:#4169e1;fill-opacity:1;fill-rule:nonzero;stroke:none"
             id="path176" /></g></g><g
         id="g178"><g
           id="g180"
           clip-path="url(#clipPath184)"><path
             d="m 2069.12,1868.38 c -76.64,47.85 -159.84,-92.38 -36.77,-149.74 204.8,-95.39 435.62,127.85 469.65,166.43 34.83,39.57 -93.97,-28.97 -176.2,-41.27 -119.3,-17.8 -168.69,-30.41 -256.68,24.58"
             style="fill:#000000;fill-opacity:1;fill-rule:nonzero;stroke:none"
             id="path194" /></g></g><g
         id="g196"><g
           id="g198"
           clip-path="url(#clipPath202)"><path
             d="m 3261.19,3261.6 c 251.75,-373.28 1521.4799,-824.92 1304.7599,-1083.71 0,0 0.02,0 0.02,0.02 109.34,64.31 -1354.0299,158.45 -1248.6799,231.23 553.09,441.06 559.51,788.4 384.1,1108.77 -83.49,152.47 -103.81,257.72 -89.36,330.5 -1.54,41.77 19.05,86.3 46.37,126.73 -427.9,-111.11 -229.44,-454.39 -183.1,-605.38 -360.51,627.18 457.5699,217.45 -69.1901,151.61 -526.75,-65.86 -2193.5599,155.55 -2193.5599,155.55 36.2,-153.91 1833.8399,-467.35 2257.1399,-410.86 584.98,78.05 -415.7999,302.87 -208.4999,-4.46"
             style="fill:#008000;fill-opacity:1;fill-rule:nonzero;stroke:none"
             id="path212"
             sodipodi:nodetypes="cccccccccccc" /></g></g><g
         id="g214"><g
           id="g216"
           clip-path="url(#clipPath220)"><path
             d="m 2955.57,2049.54 c -190.16,-233.03 153.99,-431.98 257.59,-165.53 41.72,107.31 -13.34,267.52 32.51,405.73 -162.65,-123.12 -230.6,-167.26 -290.1,-240.2"
             style="fill:#008000;fill-opacity:1;fill-rule:nonzero;stroke:none"
             id="path228" /></g></g><g
         id="g230"><g
           id="g232"
           clip-path="url(#clipPath236)"><path
             d="m 3257.42,3876.36 c 35.65,-18.08 79.25,-3.86 97.37,31.81 18.08,35.67 3.83,79.25 -31.8,97.36 -35.69,18.1 -79.27,3.87 -97.39,-31.8 -18.08,-35.65 -3.84,-79.25 31.82,-97.37"
             style="fill:#000000;fill-opacity:1;fill-rule:nonzero;stroke:none"
             id="path244" /></g></g><g
         id="g246"><g
           id="g248"
           clip-path="url(#clipPath252)"><path
             d="m 3409.92,4016.78 c 25.31,-12.85 56.28,-2.75 69.12,22.58 12.86,25.31 2.78,56.29 -22.55,69.14 -25.34,12.86 -56.32,2.75 -69.17,-22.59 -12.86,-25.32 -2.74,-56.3 22.6,-69.13"
             style="fill:#000000;fill-opacity:1;fill-rule:nonzero;stroke:none"
             id="path260" /></g></g><g
         id="g262"><g
           id="g264"
           clip-path="url(#clipPath268)"><path
             d="m 1156.46,3637.82 c 0,-39.99 -32.44,-72.42 -72.43,-72.42 -39.99,0 -72.43,32.43 -72.43,72.42 0,40.01 32.44,72.42 72.43,72.42 39.99,0 72.43,-32.41 72.43,-72.42"
             style="fill:#4169e1;fill-opacity:1;fill-rule:nonzero;stroke:none"
             id="path276" /></g></g><g
         id="g278"><g
           id="g280"
           clip-path="url(#clipPath284)"><path
             d="m 1156.46,4200.53 c 0,-40 -32.44,-72.42 -72.43,-72.42 -39.99,0 -72.43,32.42 -72.43,72.42 0,40.02 32.44,72.43 72.43,72.43 39.99,0 72.43,-32.41 72.43,-72.43"
             style="fill:#4169e1;fill-opacity:1;fill-rule:nonzero;stroke:none"
             id="path292" /></g></g><g
         id="g294"><g
           id="g296"
           clip-path="url(#clipPath300)"><path
             d="m 1103.83,3919.06 c 0,-50.91 -41.28,-92.2 -92.19,-92.2 -50.956,0 -92.245,41.29 -92.245,92.2 0,50.94 41.289,92.25 92.245,92.25 50.91,0 92.19,-41.31 92.19,-92.25"
             style="fill:#4169e1;fill-opacity:1;fill-rule:nonzero;stroke:none"
             id="path308" /></g></g><g
         id="g310"><g
           id="g312"
           clip-path="url(#clipPath316)"><path
             d="m 1235.58,3446.3 c 0,-27.49 -22.28,-49.77 -49.76,-49.77 -27.48,0 -49.77,22.28 -49.77,49.77 0,27.49 22.29,49.78 49.77,49.78 27.48,0 49.76,-22.29 49.76,-49.78"
             style="fill:#4169e1;fill-opacity:1;fill-rule:nonzero;stroke:none"
             id="path324" /></g></g><g
         id="g326"><g
           id="g328"
           clip-path="url(#clipPath332)"><path
             d="m 1341.85,3308.48 c 0,-23.65 -19.19,-42.87 -42.89,-42.87 -23.67,0 -42.85,19.22 -42.85,42.87 0,23.67 19.18,42.89 42.85,42.89 23.7,0 42.89,-19.22 42.89,-42.89"
             style="fill:#4169e1;fill-opacity:1;fill-rule:nonzero;stroke:none"
             id="path340" /></g></g><g
         id="g342"><g
           id="g344"
           clip-path="url(#clipPath348)"><path
             d="m 1496.58,3206.45 c 0,-23.69 -19.2,-42.88 -42.87,-42.88 -23.68,0 -42.89,19.19 -42.89,42.88 0,23.65 19.21,42.87 42.89,42.87 23.67,0 42.87,-19.22 42.87,-42.87"
             style="fill:#4169e1;fill-opacity:1;fill-rule:nonzero;stroke:none"
             id="path356" /></g></g><g
         id="g358"><g
           id="g360"
           clip-path="url(#clipPath364)"><path
             d="m 1701.84,3163.57 c 0,-23.7 -19.21,-42.89 -42.88,-42.89 -23.69,0 -42.87,19.19 -42.87,42.89 0,23.67 19.18,42.88 42.87,42.88 23.67,0 42.88,-19.21 42.88,-42.88"
             style="fill:#4169e1;fill-opacity:1;fill-rule:nonzero;stroke:none"
             id="path372" /></g></g><g
         id="g374"><g
           id="g376"
           clip-path="url(#clipPath380)"><path
             d="m 2124.3,1181.56 c -6.8,-53.5 -55.67,-91.34 -109.09,-84.53 -53.5,6.74 -91.35,55.63 -84.58,109.08 6.78,53.44 55.64,91.35 109.12,84.54 53.42,-6.79 91.3,-55.6 84.55,-109.09"
             style="fill:#4169e1;fill-opacity:1;fill-rule:nonzero;stroke:none"
             id="path388" /></g></g><g
         id="g390"><g
           id="g392"
           clip-path="url(#clipPath396)"><path
             d="m 2190.93,1416.83 c -4.68,-36.75 -38.25,-62.77 -74.97,-58.1 -36.76,4.64 -62.76,38.25 -58.09,74.98 4.63,36.72 38.2,62.74 74.96,58.12 36.72,-4.68 62.75,-38.26 58.1,-75"
             style="fill:#4169e1;fill-opacity:1;fill-rule:nonzero;stroke:none"
             id="path404" /></g></g><g
         id="g406"><g
           id="g408"
           clip-path="url(#clipPath412)"><path
             d="m 2039.02,928.84 c -4.66,-36.738 -38.24,-62.781 -74.98,-58.11 -36.75,4.622 -62.75,38.231 -58.04,74.969 4.61,36.711 38.18,62.781 74.95,58.101 36.73,-4.659 62.72,-38.261 58.07,-74.96"
             style="fill:#4169e1;fill-opacity:1;fill-rule:nonzero;stroke:none"
             id="path420" /></g></g><g
         id="g422"><g
           id="g424"
           clip-path="url(#clipPath428)"><path
             d="m 2305.16,1586.35 c -4.07,-31.64 -32.95,-54.09 -64.61,-50.03 -31.65,3.97 -54.07,32.9 -50.05,64.55 4,31.66 32.93,54.05 64.58,50.07 31.68,-4.01 54.08,-32.95 50.08,-64.59"
             style="fill:#4169e1;fill-opacity:1;fill-rule:nonzero;stroke:none"
             id="path436" /></g></g><g
         id="g438"><g
           id="g440"
           clip-path="url(#clipPath444)"><path
             d="m 3576.59,4060 c 25,-12.67 55.56,-2.71 68.24,22.29 12.71,25 2.73,55.53 -22.27,68.22 -24.98,12.7 -55.54,2.72 -68.24,-22.28 -12.66,-25 -2.7,-55.55 22.27,-68.23"
             style="fill:#000000;fill-opacity:1;fill-rule:nonzero;stroke:none"
             id="path452" /></g></g></g><path
       style="opacity:0;fill:#000000;fill-opacity:0;stroke-width:0;stroke:none"
       d="m 99.856612,92.514215 c 2.751898,-0.143974 5.011588,0.231515 5.037968,0.838423 0.008,0.191331 -0.20638,0.380802 -0.5907,0.552131 0,0 0,0 0,0 -0.8401,0.374514 -2.46436,0.654869 -4.355488,0.720387 -1.879875,0.06513 -3.541677,-0.09732 -4.396024,-0.377021 0,0 0,0 0,0 -0.396131,-0.129686 -0.624985,-0.285786 -0.632638,-0.461807 -0.02428,-0.558346 2.184985,-1.128139 4.936882,-1.272113 z"
       id="path2900"
       inkscape:path-effect="#path-effect2902;#path-effect2904;#path-effect2906"
       inkscape:original-d="m 99.948392,94.625154 c 0,-0.723067 -0.12633,-1.381623 -0.09178,-2.110939 0.276098,0.765777 0.385918,1.375596 0.09178,2.110939 z"
       class="UnoptimicedTransforms" /><path
       style="opacity:0;fill:#000000;fill-opacity:0;stroke-width:0;stroke:none"
       d="m 100.31551,94.166252 c -2.598561,0.91714 -4.830893,1.311978 -4.982881,0.881342 -0.151989,-0.430636 1.833638,-1.524473 4.432201,-2.441609 2.59856,-0.917136 4.83089,-1.311974 4.98288,-0.881342 0.15199,0.430631 -1.83364,1.524469 -4.4322,2.441609 z"
       id="path2908"
       inkscape:path-effect="#path-effect2910;#path-effect2912"
       inkscape:original-d="M 100.31551,94.166252 99.764833,92.605994"
       class="UnoptimicedTransforms" /><path
       style="opacity:0;fill:#000000;fill-opacity:0;stroke:none;stroke-width:0"
       d="m 125.83034,102.61001 c 1.95297,-0.60853 4.67244,2.20452 6.89515,6.74636 l 0,0 c 0.55247,1.1289 1.07425,2.36461 1.54594,3.68113 l 0,0 c 0.13663,0.38132 0.26905,0.76943 0.3968,1.16368 l 0,0 c 0.0347,0.1071 0.0691,0.21465 0.10306,0.32265 l 0,0 m -9.5319,2.97007 c 0.009,0.0285 0.0176,0.0571 0.0265,0.0856 -3.3e-4,-0.001 0.01,0.032 0.01,0.0309 0,0 -8e-5,-2.7e-4 -8e-5,-2.7e-4 5.1e-4,0.002 -0.005,-0.0152 -0.004,-0.0135 -0.004,-0.0129 -0.008,-0.0258 -0.012,-0.0386 -0.016,-0.0517 -0.032,-0.1034 -0.0478,-0.15505 l 0,0 c -0.066,-0.21572 -0.12976,-0.43078 -0.19141,-0.64506 l 0,0 c -2.04666,-7.11336 -1.71998,-13.35943 0.8103,-14.14785 2.53026,-0.78841 6.34714,4.16654 8.70338,11.18345 l 0,0 c 0.071,0.21137 0.14063,0.42461 0.20888,0.63962 l 0,0 c 0.0163,0.0515 0.0326,0.10305 0.0488,0.15473 0.004,0.0129 0.008,0.0257 0.0121,0.0386 -3.5e-4,-0.001 0.005,0.0147 0.004,0.0135 0,0 8e-5,2.7e-4 8e-5,2.7e-4 5.2e-4,0.002 -0.0101,-0.0325 -0.01,-0.0309 -0.009,-0.0285 -0.0179,-0.057 -0.0268,-0.0855 m -9.5319,2.97008 0,0 c -0.0334,-0.10819 -0.0662,-0.21623 -0.0985,-0.32409 l 0,0 c -0.11881,-0.39704 -0.23028,-0.79167 -0.33445,-1.18311 l 0,0 c -0.35963,-1.35144 -0.63213,-2.66482 -0.8187,-3.90774 l 0,0 c -0.75063,-5.00053 -0.11043,-8.86044 1.84255,-9.46897"
       id="path2914"
       inkscape:path-effect="#path-effect2916;#path-effect2918"
       inkscape:original-d="m 125.83034,102.61001 3.94654,12.66564 z"
       class="UnoptimicedTransforms"
       transform="matrix(1,0,0,-1,0,220.13802)" /><path
       style="opacity:0;fill:#000000;fill-opacity:0;stroke-width:0"
       id="path2983"
       d="m 124.97761,97.913398 c 0.25854,0.421865 0.43045,0.887283 0.57584,1.357908 0.14553,0.651049 0.2592,1.308784 0.39223,1.962514 0.24108,0.80727 0.4088,1.63039 0.57606,2.45506 0.10535,0.52508 0.18192,1.05478 0.21862,1.58898 0.0215,0.39188 0.0292,0.78376 0.0186,1.17605 0.002,0.39802 -0.003,0.79433 -0.0266,1.19165 -0.0308,0.41316 -0.0887,0.82325 -0.12146,1.23623 -0.0377,0.43399 -0.0311,0.86733 0.0169,1.29976 0.0892,0.59675 0.22825,1.18451 0.3787,1.76834 0.12236,0.49251 0.30758,0.96776 0.54784,1.41431 0.14635,0.25381 0.25952,0.51839 0.353,0.79498 0.0449,0.12903 0.0644,0.26388 0.0838,0.39838 0,0 3.51815,1.73704 3.51815,1.73704 v 0 c -0.0169,-0.15161 -0.0349,-0.3031 -0.0619,-0.45334 -0.0741,-0.31415 -0.17165,-0.61694 -0.34462,-0.89234 -0.14456,-0.24692 -0.067,-0.12317 -0.23367,-0.37062 -0.1795,-0.30434 -0.28704,-0.63958 -0.38994,-0.97534 -0.16475,-0.55954 -0.33353,-1.11802 -0.38584,-1.70248 -0.0431,-0.40925 -0.0665,-0.81818 -0.0308,-1.22932 0.0256,-0.41617 0.0825,-0.82895 0.10687,-1.24489 0.0312,-0.40079 0.0827,-0.79903 0.0624,-1.20191 -0.009,-0.40314 0.005,-0.80634 -0.0181,-1.20901 -0.0452,-0.5719 -0.15191,-1.13432 -0.30104,-1.68846 -0.0334,-0.14657 -0.1615,-0.70508 -0.1907,-0.8455 -0.11032,-0.53067 -0.18047,-1.07114 -0.34109,-1.59028 -0.15563,-0.65235 -0.25514,-1.31752 -0.38408,-1.97558 -0.10274,-0.46702 -0.2548,-0.919996 -0.41214,-1.37024 0,0 -3.60693,-1.631892 -3.60693,-1.631892 z" /><path
       style="opacity:0;fill:#000000;fill-opacity:0;stroke-width:0;stroke:none"
       d="m 126.65637,100.86619 c 2.69547,-0.57279 5.5821,2.25174 6.44336,6.30475 0.86126,4.053 -0.62737,7.80727 -3.32285,8.38006 -2.69547,0.57278 -5.5821,-2.25174 -6.44336,-6.30475 -0.86126,-4.05301 0.62738,-7.80727 3.32285,-8.38006 z"
       id="path3048"
       inkscape:path-effect="#path-effect3050"
       inkscape:original-d="m 126.65637,100.86619 3.12051,14.6848"
       class="UnoptimicedTransforms" /><path
       style="opacity:0;fill:#000000;fill-opacity:0;stroke:none;stroke-width:0"
       d="m 126.56458,99.948393 c 1.31632,-0.25109 2.86216,0.739637 4.16626,2.638367 1.32492,1.92905 2.51603,4.97235 2.4587,8.88728 -0.0167,1.14119 -0.14316,2.27452 -0.37681,3.37334 -10e-6,0 -10e-6,0 -10e-6,0 -1.22135,4.05293 -3.66194,6.07231 -5.50323,6.82425 -1.9029,0.77709 -3.38191,0.47005 -4.14077,-0.43029 -0.768,-0.91118 -0.7179,-2.33719 -0.41191,-3.90476 0.29683,-1.52066 0.85168,-3.08957 0.46601,-4.01873 0,0 0,-1e-5 0,-1e-5 0.0402,-0.62312 0.0583,-1.25372 0.0646,-1.9671 0.0226,-2.5446 -0.0688,-4.96285 0.45706,-7.35296 0.49649,-2.25669 1.44946,-3.78794 2.82007,-4.049387 z"
       id="path3052"
       inkscape:path-effect="#path-effect3054;#path-effect3056"
       inkscape:original-d="m 126.56458,99.948393 c 1.00984,5.292907 2.0194,10.585447 3.02874,15.877937 -2.14131,1.80531 -4.2828,3.61027 -6.42459,5.41501"
       class="UnoptimicedTransforms"
       sodipodi:nodetypes="ccc" /><path
       style="opacity:0;fill:#000000;fill-opacity:0;stroke-width:0;stroke:none"
       d="m 99.673052,92.697775 c 0.368708,-0.155246 1.053658,0.245793 1.162018,-0.26482 0.36391,-0.121299 0.68986,-0.553704 1.74221,-0.793574 0.86024,-0.322583 3.08942,-1.160004 4.70065,-1.67265 1.55965,-0.508151 3.51675,-1.106844 5.58501,-1.618929 1.91552,-0.536047 4.6318,-1.140925 7.97695,-0.814484 0,0 0,0 0,0 2.12122,0.299459 4.17165,1.120842 5.94326,2.462463 1.77353,1.229888 3.38692,3.223694 4.31491,6.047135 0.83875,3.168454 0.31768,6.494894 -1.61046,9.248674 -1.04618,1.42597 -1.85973,2.17458 -2.05937,2.48004 0.0108,0.004 0.0205,0.007 0.0291,0.007 0.11937,7.7e-4 0.0343,-0.43092 0.0752,-1.48295 -0.28174,-0.0858 0.44786,0.48177 1.32804,1.87092 1.14552,1.46923 2.39186,2.9944 3.60756,4.92172 1.19955,1.92226 1.71633,3.35263 2.23564,4.12146 0.22912,0.18734 0.008,0.20048 -0.47925,-0.0836 -0.8471,-0.13298 -1.23029,-0.13576 -1.37711,0.0614 0.84125,0.0658 2.29576,-1.32439 3.87998,-2.47411 2.33084,-1.82225 3.63264,-2.97204 5.3885,-4.19126 1.27275,-0.87943 2.2624,-1.42872 3.0473,-1.58942 0.18878,0.0328 0.9501,-0.0826 1.04229,0.19391 0.0922,0.2765 0.53125,0.3754 0.22418,0.95485 -0.0545,0.69462 -0.40123,1.83026 -1.02936,3.18703 -0.72398,1.58236 -1.96332,3.84423 -3.68636,6.1952 -0.92783,1.47596 -2.58805,3.73821 -5.86009,5.43451 -1.24195,0.62414 -2.90248,0.75762 -4.87906,0.16201 -1.59518,-0.73953 -2.67958,-1.60091 -3.21827,-2.38657 -1.46017,-1.74804 -2.35766,-3.38561 -3.08743,-4.3223 -0.85984,-1.15114 -2.0639,-2.39811 -3.40961,-3.98485 -0.94474,-0.85178 -2.34345,-2.59773 -3.37201,-5.59029 -0.41262,-2.81419 0.10827,-5.12271 1.28086,-6.66169 0.0839,-0.11007 0.17093,-0.21603 0.26107,-0.31779 1.05254,-1.37079 1.80744,-2.020486 1.94823,-2.265543 0.20356,-0.24714 0.37341,-0.785935 0.31715,-0.999757 0.13417,-0.161852 -0.28312,-0.624699 -0.79382,-1.234169 -0.47405,-0.467638 -1.03842,-0.83198 -1.58269,-0.994879 0,0 0,0 0,0 -1.22871,-0.458454 -3.32411,-0.289485 -5.36183,-0.264013 -2.15033,0.06953 -3.85611,0.142739 -5.71921,0.136367 -2.1314,-0.01022 -3.82845,-0.087 -5.41052,-0.398896 -1.1091,-0.133011 -2.27427,-0.573817 -3.007586,-1.252226 -1.122566,-1.108829 -0.514812,-1.670343 -0.146102,-1.825589 z"
       id="path3058"
       inkscape:path-effect="#path-effect3060;#path-effect3062"
       inkscape:original-d="m 99.673052,92.697775 c 0.245012,0.581536 0.489758,1.162809 0.734238,1.743819 4.83411,-0.886961 9.66776,-1.774148 14.50124,-2.661619 1.8359,-0.06092 3.67146,-0.12211 5.5068,-0.18356 1.16283,0.581549 2.32535,1.16281 3.48764,1.743819 1.04045,1.193427 2.08061,2.386544 3.12052,3.579418 -0.2139,1.927683 -0.42805,3.855028 -0.64247,5.782138 -2.11071,1.3464 -4.22161,2.69248 -6.33281,4.03832 3.21263,2.93728 6.42486,5.87418 9.63689,8.81088 0.97927,3.27381 1.95824,6.54723 2.93696,9.82046 4.43639,-5.38427 8.87233,-10.76859 13.3081,-16.15328 0.0921,-0.0303 0.18382,-0.0609 0.27534,-0.0918"
       class="UnoptimicedTransforms" /></g></svg>
